<svg width="57" height="18" viewBox="0 0 57 18" fill="none" xmlns="http://www.w3.org/2000/svg">
<path d="M3.11492 17H0.552422L6.31023 1H9.0993L14.8571 17H12.2946L7.77117 3.90625H7.64617L3.11492 17ZM3.54461 10.7344H11.8571V12.7656H3.54461V10.7344ZM16.2877 17V1H22.147C23.2824 1 24.2226 1.1875 24.9673 1.5625C25.7121 1.93229 26.2694 2.4349 26.6392 3.07031C27.009 3.70052 27.1939 4.41146 27.1939 5.20312C27.1939 5.86979 27.0715 6.43229 26.8267 6.89062C26.5819 7.34375 26.2538 7.70833 25.8423 7.98437C25.4361 8.25521 24.9882 8.45312 24.4986 8.57812V8.73437C25.0298 8.76042 25.5481 8.93229 26.0533 9.25C26.5637 9.5625 26.9856 10.0078 27.3189 10.5859C27.6522 11.1641 27.8189 11.8672 27.8189 12.6953C27.8189 13.513 27.6262 14.2474 27.2408 14.8984C26.8606 15.5443 26.272 16.0573 25.4752 16.4375C24.6783 16.8125 23.6601 17 22.4205 17H16.2877ZM18.7017 14.9297H22.1861C23.3423 14.9297 24.1705 14.7057 24.6705 14.2578C25.1705 13.8099 25.4205 13.25 25.4205 12.5781C25.4205 12.0729 25.2929 11.6094 25.0377 11.1875C24.7824 10.7656 24.4179 10.4297 23.9439 10.1797C23.4752 9.92969 22.9179 9.80469 22.272 9.80469H18.7017V14.9297ZM18.7017 7.92187H21.9361C22.4778 7.92187 22.9647 7.81771 23.397 7.60937C23.8345 7.40104 24.1809 7.10937 24.4361 6.73437C24.6965 6.35417 24.8267 5.90625 24.8267 5.39062C24.8267 4.72917 24.5949 4.17448 24.1314 3.72656C23.6679 3.27865 22.9569 3.05469 21.9986 3.05469H18.7017V7.92187ZM31.1537 17H28.5912L34.3491 1H37.1381L42.8959 17H40.3334L35.81 3.90625H35.685L31.1537 17ZM31.5834 10.7344H39.8959V12.7656H31.5834V10.7344ZM56.8636 6.20312H54.4261C54.3323 5.68229 54.1579 5.22396 53.9027 4.82812C53.6474 4.43229 53.3349 4.09635 52.9652 3.82031C52.5954 3.54427 52.1813 3.33594 51.723 3.19531C51.2698 3.05469 50.7881 2.98437 50.2777 2.98437C49.3558 2.98437 48.5303 3.21615 47.8011 3.67969C47.0771 4.14323 46.5042 4.82292 46.0823 5.71875C45.6657 6.61458 45.4573 7.70833 45.4573 9C45.4573 10.3021 45.6657 11.401 46.0823 12.2969C46.5042 13.1927 47.0797 13.8698 47.8089 14.3281C48.5381 14.7865 49.3584 15.0156 50.2698 15.0156C50.7751 15.0156 51.2542 14.9479 51.7073 14.8125C52.1657 14.6719 52.5797 14.4661 52.9495 14.1953C53.3193 13.9245 53.6318 13.5937 53.887 13.2031C54.1474 12.8073 54.3271 12.3542 54.4261 11.8438L56.8636 11.8516C56.7334 12.638 56.4808 13.362 56.1058 14.0234C55.736 14.6797 55.2594 15.2474 54.6761 15.7266C54.098 16.2005 53.4365 16.5677 52.6917 16.8281C51.9469 17.0885 51.1344 17.2187 50.2542 17.2187C48.8688 17.2187 47.6344 16.8906 46.5511 16.2344C45.4678 15.5729 44.6136 14.6276 43.9886 13.3984C43.3688 12.1693 43.0589 10.7031 43.0589 9C43.0589 7.29167 43.3714 5.82552 43.9964 4.60156C44.6214 3.3724 45.4756 2.42969 46.5589 1.77344C47.6422 1.11198 48.874 0.781249 50.2542 0.781249C51.1032 0.781249 51.8948 0.903645 52.6292 1.14844C53.3688 1.38802 54.0329 1.74219 54.6214 2.21094C55.2099 2.67448 55.6969 3.24219 56.0823 3.91406C56.4678 4.58073 56.7282 5.34375 56.8636 6.20312Z" fill="#F80"/>
</svg>
