<svg width="126" height="71" xmlns="http://www.w3.org/2000/svg">

 <g>
  <title>Layer 1</title>
  <g id="svg_17">
   <path id="svg_1" d="m72.7,22.5l11.3,0l0,11.5l5.7,0c2.6,0 5.3,-0.5 7.8,-1.3c1.2,-0.4 2.6,-1 3.8,-1.7c-1.6,-2.1 -2.4,-4.7 -2.6,-7.3c-0.3,-3.5 0.4,-8.1 2.8,-10.8l1.2,-1.4l1.4,1.1c3.6,2.9 6.5,6.8 7.1,11.4c4.3,-1.3 9.3,-1 13.1,1.2l1.5,0.9l-0.8,1.6c-3.2,6.2 -9.9,8.2 -16.4,7.8c-9.8,24.3 -31,35.8 -56.8,35.8c-13.3,0 -25.5,-5 -32.5,-16.8l-0.1,-0.2l-1,-2.1c-2.4,-5.2 -3.1,-10.9 -2.6,-16.6l0.2,-1.7l9.6,0l0,-11.4l11.3,0l0,-11.2l22.5,0l0,-11.3l13.5,0l0,22.5z" fill="#3A4D54" clip-rule="evenodd" fill-rule="evenodd"/>
   <path id="svg_2" d="m109.3,26.8c0.8,-5.9 -3.6,-10.5 -6.4,-12.7c-3.1,3.6 -3.6,13.2 1.3,17.2c-2.8,2.4 -8.5,4.7 -14.5,4.7l-72.2,0c-0.6,6.2 0.5,11.9 3,16.8l0.8,1.5c0.5,0.9 1.1,1.7 1.7,2.6c3,0.2 5.7,0.3 8.2,0.2c4.9,-0.1 8.9,-0.7 12,-1.7c0.5,-0.2 0.9,0.1 1.1,0.5c0.2,0.5 -0.1,0.9 -0.5,1.1c-0.4,0.1 -0.8,0.3 -1.3,0.4c-2.4,0.7 -5,1.1 -8.3,1.3l-0.6,0c-1.3,0.1 -2.7,0.1 -4.2,0.1c-1.6,0 -3.1,0 -4.9,-0.1c6,6.8 15.4,10.8 27.2,10.8c25,0 46.2,-11.1 55.5,-35.9c6.7,0.7 13.1,-1 16,-6.7c-4.5,-2.7 -10.5,-1.8 -13.9,-0.1z" fill="#00AADA"/>
   <path id="svg_3" d="m109.3,26.8c0.8,-5.9 -3.6,-10.5 -6.4,-12.7c-3.1,3.6 -3.6,13.2 1.3,17.2c-2.8,2.4 -8.5,4.7 -14.5,4.7l-68,0c-0.3,9.5 3.2,16.7 9.5,21c4.9,-0.1 8.9,-0.7 12,-1.7c0.5,-0.2 0.9,0.1 1.1,0.5c0.2,0.5 -0.1,0.9 -0.5,1.1c-0.4,0.1 -0.8,0.3 -1.3,0.4c-2.4,0.7 -5.2,1.2 -8.5,1.4l-0.1,-0.1c8.5,4.4 20.8,4.3 35,-1.1c15.8,-6.1 30.6,-17.7 40.9,-30.9c-0.2,0.1 -0.4,0.1 -0.5,0.2z" fill="#28B8EB"/>
   <path id="svg_4" d="m17.6,43.5c0.4,3.3 1.4,6.4 2.9,9.3l0.8,1.5c0.5,0.9 1.1,1.7 1.7,2.6c3,0.2 5.7,0.3 8.2,0.2c4.9,-0.1 8.9,-0.7 12,-1.7c0.5,-0.2 0.9,0.1 1.1,0.5c0.2,0.5 -0.1,0.9 -0.5,1.1c-0.4,0.1 -0.8,0.3 -1.3,0.4c-2.4,0.7 -5.2,1.2 -8.5,1.4l-0.4,0c-1.3,0.1 -2.7,0.1 -4.1,0.1c-1.6,0 -3.2,0 -4.9,-0.1c6,6.8 15.5,10.8 27.3,10.8c21.4,0 40,-8.1 50.8,-26l-85.1,0l0,-0.1z" fill="#028BB8"/>
   <path id="svg_5" d="m22.4,43.5c1.3,5.8 4.3,10.4 8.8,13.5c4.9,-0.1 8.9,-0.7 12,-1.7c0.5,-0.2 0.9,0.1 1.1,0.5c0.2,0.5 -0.1,0.9 -0.5,1.1c-0.4,0.1 -0.8,0.3 -1.3,0.4c-2.4,0.7 -5.2,1.2 -8.6,1.4c8.5,4.4 20.8,4.3 34.9,-1.1c8.5,-3.3 16.8,-8.2 24.2,-14.1l-70.6,0z" fill="#019BC6"/>
   <path id="svg_6" d="m27.3,24.4l9.8,0l0,9.8l-9.8,0l0,-9.8zm0.8,0.8l0.8,0l0,8.1l-0.8,0l0,-8.1zm1.4,0l0.8,0l0,8.1l-0.8,0l0,-8.1zm1.5,0l0.8,0l0,8.1l-0.8,0l0,-8.1zm1.5,0l0.8,0l0,8.1l-0.8,0l0,-8.1zm1.5,0l0.8,0l0,8.1l-0.8,0l0,-8.1zm1.5,0l0.8,0l0,8.1l-0.8,0l0,-8.1zm3,-12l9.8,0l0,9.8l-9.8,0l0,-9.8zm0.9,0.8l0.8,0l0,8.1l-0.8,0l0,-8.1zm1.4,0l0.8,0l0,8.1l-0.8,0l0,-8.1zm1.5,0l0.8,0l0,8.1l-0.8,0l0,-8.1zm1.5,0l0.8,0l0,8.1l-0.8,0l0,-8.1zm1.4,0l0.8,0l0,8.1l-0.8,0l0,-8.1zm1.5,0l0.8,0l0,8.1l-0.8,0l0,-8.1z" fill="#00ACD3" clip-rule="evenodd" fill-rule="evenodd"/>
   <path id="svg_7" d="m38.5,24.4l9.8,0l0,9.8l-9.8,0l0,-9.8zm0.9,0.8l0.8,0l0,8.1l-0.8,0l0,-8.1zm1.4,0l0.8,0l0,8.1l-0.8,0l0,-8.1zm1.5,0l0.8,0l0,8.1l-0.8,0l0,-8.1zm1.5,0l0.8,0l0,8.1l-0.8,0l0,-8.1zm1.4,0l0.8,0l0,8.1l-0.8,0l0,-8.1zm1.5,0l0.8,0l0,8.1l-0.8,0l0,-8.1z" fill="#23C2EE" clip-rule="evenodd" fill-rule="evenodd"/>
   <path id="svg_8" d="m49.8,24.4l9.8,0l0,9.8l-9.8,0l0,-9.8zm0.8,0.8l0.8,0l0,8.1l-0.8,0l0,-8.1zm1.5,0l0.8,0l0,8.1l-0.8,0l0,-8.1zm1.5,0l0.8,0l0,8.1l-0.8,0l0,-8.1zm1.4,0l0.8,0l0,8.1l-0.8,0l0,-8.1zm1.5,0l0.8,0l0,8.1l-0.8,0l0,-8.1zm1.5,0l0.8,0l0,8.1l-0.8,0l0,-8.1z" fill="#00ACD3" clip-rule="evenodd" fill-rule="evenodd"/>
   <path id="svg_9" d="m49.8,13.2l9.8,0l0,9.8l-9.8,0l0,-9.8zm0.8,0.8l0.8,0l0,8.1l-0.8,0l0,-8.1zm1.5,0l0.8,0l0,8.1l-0.8,0l0,-8.1zm1.5,0l0.8,0l0,8.1l-0.8,0l0,-8.1zm1.4,0l0.8,0l0,8.1l-0.8,0l0,-8.1zm1.5,0l0.8,0l0,8.1l-0.8,0l0,-8.1zm1.5,0l0.8,0l0,8.1l-0.8,0l0,-8.1zm3.1,10.4l9.8,0l0,9.8l-9.8,0l0,-9.8zm0.8,0.8l0.8,0l0,8.1l-0.8,0l0,-8.1zm1.5,0l0.8,0l0,8.1l-0.8,0l0,-8.1zm1.4,0l0.8,0l0,8.1l-0.8,0l0,-8.1zm1.5,0l0.8,0l0,8.1l-0.8,0l0,-8.1zm1.5,0l0.8,0l0,8.1l-0.8,0l0,-8.1zm1.5,0l0.8,0l0,8.1l-0.8,0l0,-8.1z" fill="#23C2EE" clip-rule="evenodd" fill-rule="evenodd"/>
   <path id="svg_10" d="m61.1,13.2l9.8,0l0,9.8l-9.8,0l0,-9.8zm0.8,0.8l0.8,0l0,8.1l-0.8,0l0,-8.1zm1.5,0l0.8,0l0,8.1l-0.8,0l0,-8.1zm1.4,0l0.8,0l0,8.1l-0.8,0l0,-8.1zm1.5,0l0.8,0l0,8.1l-0.8,0l0,-8.1zm1.5,0l0.8,0l0,8.1l-0.8,0l0,-8.1zm1.5,0l0.8,0l0,8.1l-0.8,0l0,-8.1z" fill="#00ACD3" clip-rule="evenodd" fill-rule="evenodd"/>
   <path id="svg_11" d="m61.1,1.9l9.8,0l0,9.8l-9.8,0l0,-9.8zm0.8,0.8l0.8,0l0,8.1l-0.8,0l0,-8.1zm1.5,0l0.8,0l0,8.1l-0.8,0l0,-8.1zm1.4,0l0.8,0l0,8.1l-0.8,0l0,-8.1zm1.5,0l0.8,0l0,8.1l-0.8,0l0,-8.1zm1.5,0l0.8,0l0,8.1l-0.8,0l0,-8.1zm1.5,0l0.8,0l0,8.1l-0.8,0l0,-8.1z" fill="#23C2EE" clip-rule="evenodd" fill-rule="evenodd"/>
   <path id="svg_12" d="m72.4,24.4l9.8,0l0,9.8l-9.8,0l0,-9.8zm0.8,0.8l0.8,0l0,8.1l-0.8,0l0,-8.1zm1.4,0l0.8,0l0,8.1l-0.8,0l0,-8.1zm1.5,0l0.8,0l0,8.1l-0.8,0l0,-8.1zm1.5,0l0.8,0l0,8.1l-0.8,0l0,-8.1zm1.5,0l0.8,0l0,8.1l-0.8,0l0,-8.1zm1.5,0l0.8,0l0,8.1l-0.8,0l0,-8.1z" fill="#00ACD3" clip-rule="evenodd" fill-rule="evenodd"/>
   <path id="svg_13" d="m47.7,50c1.5,0 2.7,1.2 2.7,2.7c0,1.5 -1.2,2.7 -2.7,2.7c-1.5,0 -2.7,-1.2 -2.7,-2.7c0,-1.5 1.2,-2.7 2.7,-2.7" fill="#D4EEF1" clip-rule="evenodd" fill-rule="evenodd"/>
   <path id="svg_14" d="m47.7,50.8c0.2,0 0.5,0 0.7,0.1c-0.2,0.1 -0.4,0.4 -0.4,0.7c0,0.4 0.4,0.8 0.8,0.8c0.3,0 0.6,-0.2 0.7,-0.4c0.1,0.2 0.1,0.5 0.1,0.7c0,1.1 -0.9,1.9 -1.9,1.9c-1.1,0 -1.9,-0.9 -1.9,-1.9c0,-1 0.8,-1.9 1.9,-1.9m-47.7,-6.3l125.4,0c-2.7,-0.7 -8.6,-1.6 -7.7,-5.2c-5,5.7 -16.9,4 -20,1.2c-3.4,4.9 -23,3 -24.3,-0.8c-4.2,5 -17.3,5 -21.5,0c-1.4,3.8 -21,5.7 -24.3,0.8c-3,2.8 -15,4.5 -20,-1.2c1.1,3.5 -4.9,4.5 -7.6,5.2" fill="#3A4D54" clip-rule="evenodd" fill-rule="evenodd"/>
   <path id="svg_15" d="m54.9,69.5c-6.7,-3.2 -10.3,-7.5 -12.4,-12.2c-2.5,0.7 -5.5,1.2 -8.9,1.4c-1.3,0.1 -2.7,0.1 -4.1,0.1c-1.7,0 -3.4,0 -5.2,-0.1c6,6 13.6,10.7 27.5,10.8l3.1,0z" fill="#BFDBE0"/>
   <path id="svg_16" d="m45,61.6c-0.9,-1.3 -1.8,-2.8 -2.5,-4.3c-2.5,0.7 -5.5,1.2 -8.9,1.4c2.3,1.2 5.7,2.4 11.4,2.9z" fill="#D4EEF1"/>
  </g>
 </g>
</svg>