<svg width="48" height="48" viewBox="0 0 48 48" fill="none" xmlns="http://www.w3.org/2000/svg">
<path d="M24.166 21.3799C22.0146 21.3799 20.7744 23.4886 20.7744 26.0952C20.7533 28.7415 22.0357 30.7685 24.1449 30.7685C26.2743 30.7685 27.5164 28.762 27.5164 26.0331C27.5163 23.4886 26.3162 21.3799 24.166 21.3799Z" fill="#3cafce"/>
<path d="M42.5643 17.1689H41.4118V11.6076C41.4118 11.5726 41.4062 11.538 41.4017 11.5025C41.3999 11.2819 41.3296 11.065 41.1784 10.8932L31.9237 0.321902C31.921 0.319188 31.9181 0.31805 31.9163 0.315336C31.8612 0.253705 31.7969 0.202403 31.7289 0.158106C31.7086 0.144624 31.6884 0.133331 31.6672 0.121425C31.6084 0.0894707 31.5459 0.0625945 31.4815 0.0432471C31.4641 0.0386948 31.4485 0.0315161 31.4311 0.0269638C31.3611 0.0103303 31.2885 0 31.2151 0H8.47054C7.4319 0 6.58823 0.844719 6.58823 1.88239V17.1688H5.43588C3.9505 17.1688 2.74536 18.3731 2.74536 19.8594V33.8501C2.74536 35.3349 3.9505 36.5404 5.43588 36.5404H6.58823V46.1177C6.58823 47.1554 7.4319 48 8.47054 48H39.5295C40.5671 48 41.4118 47.1554 41.4118 46.1177V36.5405H42.5643C44.0505 36.5405 45.2545 35.3349 45.2545 33.8501V19.8594C45.2545 18.3732 44.0505 17.1689 42.5643 17.1689ZM8.47054 1.88239H30.2739V11.5128C30.2739 12.0331 30.6956 12.454 31.2151 12.454H39.5295V17.1693H8.47054V1.88239ZM30.9062 33.0009L29.9963 35.442C28.012 34.8625 26.3575 34.2619 24.496 33.477C24.1872 33.3529 23.8554 33.2904 23.5248 33.2702C20.3811 33.0643 17.4449 30.7473 17.4449 26.1986C17.4449 22.0217 20.0919 18.8778 24.248 18.8778C28.5092 18.8778 30.8446 22.1042 30.8446 25.9091C30.8446 29.0732 29.3768 31.3052 27.5367 32.1328V32.2155C28.6121 32.5253 29.8107 32.7739 30.9062 33.0009ZM6.38303 32.4017L7.02456 29.796C7.87287 30.2303 9.17413 30.664 10.5191 30.664C11.9658 30.664 12.7314 30.0652 12.7314 29.1558C12.7314 28.2867 12.0696 27.7904 10.3948 27.1911C8.0786 26.3842 6.56941 25.1025 6.56941 23.0753C6.56941 20.6973 8.55493 18.8777 11.8423 18.8777C13.4141 18.8777 14.5723 19.2096 15.3987 19.5807L14.6965 22.1248C14.1384 21.8555 13.146 21.4626 11.7812 21.4626C10.4156 21.4626 9.75342 22.0824 9.75342 22.8071C9.75342 23.6957 10.5393 24.0893 12.3389 24.7722C14.7996 25.6821 15.9573 26.9628 15.9573 28.9274C15.9573 31.2648 14.1576 33.2491 10.3323 33.2491C8.74079 33.2482 7.16979 32.8345 6.38303 32.4017ZM39.5295 45.6075H8.47054V36.5405H39.5295V45.6075ZM41.6177 33.0418H32.9109V19.105H36.0763V30.3956H41.6177V33.0418Z" fill="#3cafce"/>
</svg>
