<svg width="55" height="18" viewBox="0 0 55 18" fill="none" xmlns="http://www.w3.org/2000/svg">
<path d="M0.875664 17V1H6.57879C7.81837 1 8.84702 1.21354 9.66473 1.64062C10.4876 2.06771 11.1022 2.65885 11.5085 3.41406C11.9147 4.16406 12.1179 5.03125 12.1179 6.01562C12.1179 6.99479 11.9121 7.85677 11.5007 8.60156C11.0944 9.34115 10.4798 9.91667 9.65691 10.3281C8.83921 10.7396 7.81056 10.9453 6.57098 10.9453H2.25066V8.86719H6.35223C7.13348 8.86719 7.76889 8.75521 8.25848 8.53125C8.75327 8.30729 9.11525 7.98177 9.34441 7.55469C9.57358 7.1276 9.68816 6.61458 9.68816 6.01562C9.68816 5.41146 9.57098 4.88802 9.3366 4.44531C9.10744 4.0026 8.74546 3.66406 8.25066 3.42969C7.76108 3.1901 7.11785 3.07031 6.32098 3.07031H3.28973V17H0.875664ZM8.7741 9.78125L12.7272 17H9.97723L6.10223 9.78125H8.7741ZM14.1754 17V1H20.0347C21.1701 1 22.1102 1.1875 22.855 1.5625C23.5998 1.93229 24.1571 2.4349 24.5269 3.07031C24.8967 3.70052 25.0816 4.41146 25.0816 5.20312C25.0816 5.86979 24.9592 6.43229 24.7144 6.89062C24.4696 7.34375 24.1415 7.70833 23.73 7.98437C23.3238 8.25521 22.8759 8.45312 22.3863 8.57812V8.73437C22.9175 8.76042 23.4358 8.93229 23.941 9.25C24.4514 9.5625 24.8733 10.0078 25.2066 10.5859C25.5399 11.1641 25.7066 11.8672 25.7066 12.6953C25.7066 13.513 25.5139 14.2474 25.1285 14.8984C24.7483 15.5443 24.1597 16.0573 23.3629 16.4375C22.566 16.8125 21.5477 17 20.3082 17H14.1754ZM16.5894 14.9297H20.0738C21.23 14.9297 22.0582 14.7057 22.5582 14.2578C23.0582 13.8099 23.3082 13.25 23.3082 12.5781C23.3082 12.0729 23.1806 11.6094 22.9254 11.1875C22.6701 10.7656 22.3056 10.4297 21.8316 10.1797C21.3629 9.92969 20.8056 9.80469 20.1597 9.80469H16.5894V14.9297ZM16.5894 7.92187H19.8238C20.3655 7.92187 20.8524 7.81771 21.2847 7.60937C21.7222 7.40104 22.0686 7.10937 22.3238 6.73437C22.5842 6.35417 22.7144 5.90625 22.7144 5.39062C22.7144 4.72917 22.4826 4.17448 22.0191 3.72656C21.5556 3.27865 20.8446 3.05469 19.8863 3.05469H16.5894V7.92187ZM29.0414 17H26.4789L32.2368 1H35.0258L40.7836 17H38.2211L33.6977 3.90625H33.5727L29.0414 17ZM29.4711 10.7344H37.7836V12.7656H29.4711V10.7344ZM54.7513 6.20312H52.3138C52.22 5.68229 52.0456 5.22396 51.7904 4.82812C51.5351 4.43229 51.2226 4.09635 50.8529 3.82031C50.4831 3.54427 50.069 3.33594 49.6107 3.19531C49.1575 3.05469 48.6758 2.98437 48.1654 2.98437C47.2435 2.98437 46.418 3.21615 45.6888 3.67969C44.9648 4.14323 44.3919 4.82292 43.97 5.71875C43.5534 6.61458 43.345 7.70833 43.345 9C43.345 10.3021 43.5534 11.401 43.97 12.2969C44.3919 13.1927 44.9674 13.8698 45.6966 14.3281C46.4258 14.7865 47.2461 15.0156 48.1575 15.0156C48.6627 15.0156 49.1419 14.9479 49.595 14.8125C50.0534 14.6719 50.4674 14.4661 50.8372 14.1953C51.207 13.9245 51.5195 13.5937 51.7747 13.2031C52.0351 12.8073 52.2148 12.3542 52.3138 11.8438L54.7513 11.8516C54.6211 12.638 54.3685 13.362 53.9935 14.0234C53.6237 14.6797 53.1471 15.2474 52.5638 15.7266C51.9857 16.2005 51.3242 16.5677 50.5794 16.8281C49.8346 17.0885 49.0221 17.2187 48.1419 17.2187C46.7565 17.2187 45.5221 16.8906 44.4388 16.2344C43.3555 15.5729 42.5013 14.6276 41.8763 13.3984C41.2565 12.1693 40.9466 10.7031 40.9466 9C40.9466 7.29167 41.2591 5.82552 41.8841 4.60156C42.5091 3.3724 43.3633 2.42969 44.4466 1.77344C45.5299 1.11198 46.7617 0.781249 48.1419 0.781249C48.9909 0.781249 49.7825 0.903645 50.5169 1.14844C51.2565 1.38802 51.9206 1.74219 52.5091 2.21094C53.0976 2.67448 53.5846 3.24219 53.97 3.91406C54.3555 4.58073 54.6159 5.34375 54.7513 6.20312Z" fill="#F80"/>
</svg>
