<svg width="343" height="280" xmlns="http://www.w3.org/2000/svg" fill="none">

 <g>
  <title>Layer 1</title>
  <path id="svg_1" fill="gray" d="m287.04696,19.85006l7.233,9.522c1.899,2.514 1.424,6.116 -1.089,8.015l-7.68,5.836c1.396,3.714 2.29,7.68 2.653,11.729l8.741,1.201c3.127,0.419 5.306,3.323 4.887,6.451l-1.62,11.868c-0.419,3.127 -3.323,5.334 -6.451,4.887l-9.55,-1.313c-1.704,3.714 -3.882,7.121 -6.451,10.165l5.362,7.037c1.899,2.514 1.396,6.116 -1.117,8.015l-9.523,7.233c-2.513,1.899 -6.116,1.396 -8.015,-1.09l-5.836,-7.679c-3.742,1.396 -7.679,2.29 -11.757,2.653l-1.2,8.741c-0.419,3.127 -3.323,5.305 -6.451,4.887l-11.868,-1.62c-3.128,-0.419 -5.306,-3.323 -4.887,-6.451l1.312,-9.55c-3.686,-1.704 -7.121,-3.882 -10.165,-6.423l-7.037,5.334c-2.513,1.898 -6.116,1.424 -8.014,-1.09l-7.233,-9.522c-1.899,-2.513 -1.424,-6.116 1.089,-8.015l7.679,-5.836c-1.396,-3.742 -2.289,-7.68 -2.652,-11.729l-8.741,-1.201c-3.128,-0.418 -5.334,-3.323 -4.887,-6.45l1.62,-11.869c0.446,-3.127 3.323,-5.305 6.45,-4.887l9.551,1.313c1.703,-3.686 3.881,-7.121 6.423,-10.165l-5.334,-7.037c-1.899,-2.486 -1.424,-6.088 1.089,-7.987l9.523,-7.232c2.513,-1.899 6.115,-1.425 8.014,1.089l5.837,7.679c3.714,-1.396 7.679,-2.29 11.728,-2.653l1.201,-8.74c0.419,-3.128 3.323,-5.334 6.451,-4.915l11.868,1.619c3.128,0.419 5.334,3.323 4.887,6.451l-1.312,9.551c3.714,1.703 7.121,3.881 10.192,6.45l7.038,-5.333c2.513,-1.927 6.115,-1.453 8.042,1.061zm-204.19,167.58l0,-46.077l23.736,0c4.412,0 7.763,0.363 10.081,1.145c2.318,0.754 4.217,2.15 5.613,4.189c1.424,2.066 2.15,4.552 2.15,7.484c0,2.541 -0.558,4.775 -1.647,6.618c-1.089,1.871 -2.597,3.379 -4.496,4.524c-1.201,0.726 -2.876,1.341 -4.999,1.815c1.704,0.587 2.932,1.117 3.686,1.704c0.531,0.391 1.285,1.201 2.262,2.429c0.978,1.229 1.648,2.206 1.983,2.877l6.926,13.32l-16.085,0l-7.596,-14.047c-0.978,-1.815 -1.815,-3.015 -2.569,-3.546c-1.034,-0.698 -2.206,-1.061 -3.491,-1.061l-1.257,0l0,18.654l-14.297,0l0,-0.028zm50.209,80.23l-26.585,0l-3.825,12.51l-23.96,0l28.567,-75.929l25.692,0l28.456,75.929l-24.575,0l-3.77,-12.51zm-4.97,-16.448l-8.294,-27.311l-8.322,27.311l16.616,0zm38.844,-46.971l39.04,0c8.517,0 14.884,2.011 19.101,6.06c4.216,4.049 6.339,9.83 6.339,17.286c0,7.679 -2.318,13.683 -6.926,18.012c-4.608,4.328 -11.673,6.478 -21.139,6.478l-12.874,0l0,28.093l-23.541,0l0,-75.929zm23.541,32.449l5.781,0c4.551,0 7.763,-0.781 9.606,-2.373c1.843,-1.564 2.765,-3.603 2.765,-6.032c0,-2.374 -0.81,-4.412 -2.402,-6.06c-1.592,-1.648 -4.608,-2.485 -9.02,-2.485l-6.73,0l0,16.95zm50.433,-32.449l23.541,0l0,75.929l-23.541,0l0,-75.929zm-143.76,-44.178l6.004,0c0.643,0 1.899,-0.223 3.77,-0.642c0.95,-0.196 1.732,-0.67 2.318,-1.452c0.614,-0.782 0.894,-1.676 0.894,-2.681c0,-1.48 -0.475,-2.653 -1.425,-3.435c-0.949,-0.81 -2.708,-1.201 -5.305,-1.201l-6.256,0l0,9.411zm33.734,-18.71l38.118,0l0,9.83l-23.82,0l0,7.344l22.089,0l0,9.383l-22.089,0l0,9.076l24.519,0l0,10.416l-38.817,0l0,-46.049zm42.196,30.83l13.515,-0.838c0.28,2.206 0.894,3.854 1.788,4.999c1.48,1.843 3.574,2.792 6.283,2.792c2.01,0 3.602,-0.475 4.691,-1.424c1.089,-0.949 1.648,-2.066 1.648,-3.323c0,-1.201 -0.531,-2.262 -1.564,-3.212c-1.033,-0.949 -3.463,-1.815 -7.288,-2.68c-6.228,-1.397 -10.668,-3.268 -13.349,-5.585c-2.681,-2.318 -4.021,-5.278 -4.021,-8.881c0,-2.373 0.698,-4.607 2.066,-6.702c1.369,-2.094 3.435,-3.77 6.2,-4.971c2.764,-1.2 6.534,-1.787 11.338,-1.787c5.892,0 10.36,1.089 13.46,3.295c3.071,2.207 4.915,5.669 5.501,10.472l-13.376,0.81c-0.363,-2.094 -1.117,-3.63 -2.234,-4.552c-1.145,-0.949 -2.737,-1.424 -4.72,-1.424c-1.647,0 -2.904,0.363 -3.742,1.061c-0.838,0.699 -1.256,1.564 -1.256,2.57c0,0.726 0.363,1.368 1.033,1.982c0.67,0.587 2.234,1.173 4.747,1.704c6.228,1.34 10.696,2.708 13.376,4.077c2.681,1.368 4.664,3.072 5.865,5.11c1.228,2.011 1.843,4.301 1.843,6.814c0,2.96 -0.81,5.669 -2.458,8.154c-1.619,2.486 -3.909,4.384 -6.841,5.669c-2.932,1.285 -6.619,1.927 -11.087,1.927c-7.819,0 -13.264,-1.508 -16.28,-4.524c-3.016,-3.072 -4.72,-6.898 -5.138,-11.533zm43.87,-30.83l43.313,0l0,11.394l-14.522,0l0,34.683l-14.242,0l0,-34.683l-14.549,0l0,-11.394zm-47.92,-109.356c-5.11,-0.391 -10.276,-0.335 -15.387,0.168c-15.722,1.508 -30.997,7.233 -43.619,17.034c-14.605,11.31 -25.691,28.233 -29.964,50.657l-1.34,7.009l-6.982,1.229c-6.841,1.201 -12.957,2.848 -18.319,4.943c-5.194,2.01 -9.83,4.496 -13.879,7.428c-3.239,2.346 -6.032,4.971 -8.405,7.819c-7.345,8.797 -10.7516,19.827 -10.6678,30.997c0.0838,11.338 3.7698,22.787 10.5838,32.198c2.541,3.491 5.473,6.702 8.824,9.495c3.407,2.82 7.233,5.166 11.534,6.925c2.429,1.006 5.026,1.843 7.735,2.514l0,20.916c-5.585,-1.006 -10.723,-2.514 -15.527,-4.496c-6.339,-2.625 -11.952,-6.004 -16.894,-10.137c-4.692,-3.91 -8.797,-8.35 -12.2877,-13.181c-9.2991,-12.846 -14.3257,-28.54 -14.4374,-44.178c-0.1117,-15.806 4.8032,-31.528 15.4148,-44.262c3.4349,-4.133 7.4843,-7.93 12.1193,-11.282c5.39,-3.909 11.561,-7.204 18.543,-9.913c4.803,-1.871 9.941,-3.435 15.359,-4.691c6.143,-24.407 19.24,-43.201 36.079,-56.242c15.75,-12.204 34.712,-19.325 54.232,-21.196c10.248,-0.977 20.636,-0.53 30.801,1.369c-0.223,0.921 -0.419,1.843 -0.53,2.792l-0.028,0.168c-0.196,1.592 -0.28,3.183 -0.196,4.803c-2.15,0.838 -4.161,1.983 -5.976,3.379l-0.084,0.056c-2.708,2.038 -4.998,4.663 -6.702,7.679zm147.754,53.617c1.563,1.424 3.071,2.904 4.551,4.496c2.988,3.211 5.809,6.842 8.462,10.891c8.936,13.739 13.516,32.086 13.32,50.042c-0.195,17.621 -4.943,35.158 -14.661,48.06c-6.339,8.405 -14.465,15.275 -24.211,20.72c-6.674,3.743 -14.186,6.842 -22.368,9.356l0,-21.643c4.412,-1.647 8.517,-3.49 12.287,-5.585c7.344,-4.105 13.348,-9.103 17.844,-15.107c6.982,-9.3 10.417,-22.452 10.556,-35.94c0.168,-14.159 -3.295,-28.373 -10.025,-38.705c-1.927,-2.988 -4.049,-5.669 -6.283,-8.07c-0.866,-0.922 -1.732,-1.788 -2.625,-2.625c0.139,-1.397 0.195,-2.821 0.111,-4.245c2.151,-0.838 4.161,-1.983 5.976,-3.379l0.084,-0.056c2.877,-2.206 5.278,-4.999 6.982,-8.21zm-70.819,-49.875c12.873,1.76 21.865,13.628 20.106,26.501c-1.759,12.874 -13.628,21.894 -26.501,20.135c-12.874,-1.76 -21.894,-13.628 -20.106,-26.501c1.787,-12.874 13.627,-21.894 26.501,-20.135z" clip-rule="evenodd" fill-rule="evenodd"/>
 </g>
</svg>